<svg width="22" height="24" viewBox="0 0 22 24" fill="none" xmlns="http://www.w3.org/2000/svg">
<g clip-path="url(#clip0_52_82)">
<path d="M14 0H8H6.5C5.67031 0 5 0.670312 5 1.5C5 2.32969 5.67031 3 6.5 3V9.225C6.5 9.77813 6.34531 10.3266 6.05469 10.7953L0.982813 19.0406C0.66875 19.5563 0.5 20.1422 0.5 20.7469C0.5 22.5422 1.95781 24 3.75313 24H18.2469C20.0422 24 21.5 22.5422 21.5 20.7469C21.5 20.1469 21.3313 19.5563 21.0172 19.0406L15.9453 10.8C15.6547 10.3266 15.5 9.78281 15.5 9.22969V3C16.3297 3 17 2.32969 17 1.5C17 0.670312 16.3297 0 15.5 0H14ZM9.5 9.225V3H12.5V9.225C12.5 10.3359 12.8094 11.4234 13.3906 12.3703L15.0078 15H6.99219L8.60938 12.3703C9.19062 11.4234 9.5 10.3359 9.5 9.225Z" fill="#4D612A"/>
</g>
<defs>
<clipPath id="clip0_52_82">
<path d="M0.5 0H21.5V24H0.5V0Z" fill="white"/>
</clipPath>
</defs>
</svg>
